solid OpenSCAD_Model
  facet normal 0.0654029693087045 -0.9978589337203955 0
    outer loop
      vertex 10.597986310720444 1.3020136803388596 0
      vertex 10.56726336479187 1.2999999970197678 2
      vertex 10.56726336479187 1.2999999970197678 0
    endloop
  endfacet
  facet normal 0.0654029693087045 -0.9978589337203955 0
    outer loop
      vertex 10.597986310720444 1.3020136803388596 0
      vertex 10.597986310720444 1.3020136803388596 2
      vertex 10.56726336479187 1.2999999970197678 2
    endloop
  endfacet
  facet normal 0.997858918962554 -0.06540319447001959 0
    outer loop
      vertex 10.600000001490116 1.3327366337180138 0
      vertex 10.597986310720444 1.3020136803388596 2
      vertex 10.597986310720444 1.3020136803388596 0
    endloop
  endfacet
  facet normal 0.997858918962554 -0.06540319447001959 0
    outer loop
      vertex 10.600000001490116 1.3327366337180138 0
      vertex 10.600000001490116 1.3327366337180138 2
      vertex 10.597986310720444 1.3020136803388596 2
    endloop
  endfacet
  facet normal 1 0 0
    outer loop
      vertex 10.600000001490116 3.8250000029802322 0
      vertex 10.600000001490116 1.3327366337180138 2
      vertex 10.600000001490116 1.3327366337180138 0
    endloop
  endfacet
  facet normal 1 0 0
    outer loop
      vertex 10.600000001490116 3.8250000029802322 0
      vertex 10.600000001490116 3.8250000029802322 2
      vertex 10.600000001490116 1.3327366337180138 2
    endloop
  endfacet
  facet normal 0.9978589242477587 -0.06540311383340917 0
    outer loop
      vertex 10.608555138111115 3.9555261954665184 0
      vertex 10.600000001490116 3.8250000029802322 2
      vertex 10.600000001490116 3.8250000029802322 0
    endloop
  endfacet
  facet normal 0.9978589242477587 -0.06540311383340917 0
    outer loop
      vertex 10.608555138111115 3.9555261954665184 0
      vertex 10.608555138111115 3.9555261954665184 2
      vertex 10.600000001490116 3.8250000029802322 2
    endloop
  endfacet
  facet normal 0.9807852789163829 -0.19509032949101543 0
    outer loop
      vertex 10.634074173867702 4.083819046616554 0
      vertex 10.608555138111115 3.9555261954665184 2
      vertex 10.608555138111115 3.9555261954665184 0
    endloop
  endfacet
  facet normal 0.9807852789163829 -0.19509032949101543 0
    outer loop
      vertex 10.634074173867702 4.083819046616554 0
      vertex 10.634074173867702 4.083819046616554 2
      vertex 10.608555138111115 3.9555261954665184 2
    endloop
  endfacet
  facet normal 0.9469301319984066 -0.32143945792867507 0
    outer loop
      vertex 10.676120467483997 4.207683436572552 0
      vertex 10.634074173867702 4.083819046616554 2
      vertex 10.634074173867702 4.083819046616554 0
    endloop
  endfacet
  facet normal 0.9469301319984066 -0.32143945792867507 0
    outer loop
      vertex 10.676120467483997 4.207683436572552 0
      vertex 10.676120467483997 4.207683436572552 2
      vertex 10.634074173867702 4.083819046616554 2
    endloop
  endfacet
  facet normal 0.8968727332159228 -0.4422887070837332 0
    outer loop
      vertex 10.73397459834814 4.325000002980232 0
      vertex 10.676120467483997 4.207683436572552 2
      vertex 10.676120467483997 4.207683436572552 0
    endloop
  endfacet
  facet normal 0.8968727332159228 -0.4422887070837332 0
    outer loop
      vertex 10.73397459834814 4.325000002980232 0
      vertex 10.73397459834814 4.325000002980232 2
      vertex 10.676120467483997 4.207683436572552 2
    endloop
  endfacet
  facet normal 0.8314696207458844 -0.5555702203832522 0
    outer loop
      vertex 10.806646659970284 4.433761432766914 0
      vertex 10.73397459834814 4.325000002980232 2
      vertex 10.73397459834814 4.325000002980232 0
    endloop
  endfacet
  facet normal 0.8314696207458844 -0.5555702203832522 0
    outer loop
      vertex 10.806646659970284 4.433761432766914 0
      vertex 10.806646659970284 4.433761432766914 2
      vertex 10.73397459834814 4.325000002980232 2
    endloop
  endfacet
  facet normal 0.7518398201512305 -0.6593458006501332 0
    outer loop
      vertex 10.892893217504025 4.532106786966324 0
      vertex 10.806646659970284 4.433761432766914 2
      vertex 10.806646659970284 4.433761432766914 0
    endloop
  endfacet
  facet normal 0.7518398201512305 -0.6593458006501332 0
    outer loop
      vertex 10.892893217504025 4.532106786966324 0
      vertex 10.892893217504025 4.532106786966324 2
      vertex 10.806646659970284 4.433761432766914 2
    endloop
  endfacet
  facet normal 0.6593458006501332 -0.7518398201512305 0
    outer loop
      vertex 10.991238571703434 4.618353344500065 0
      vertex 10.892893217504025 4.532106786966324 2
      vertex 10.892893217504025 4.532106786966324 0
    endloop
  endfacet
  facet normal 0.6593458006501332 -0.7518398201512305 0
    outer loop
      vertex 10.991238571703434 4.618353344500065 0
      vertex 10.991238571703434 4.618353344500065 2
      vertex 10.892893217504025 4.532106786966324 2
    endloop
  endfacet
  facet normal 0.5555702203832522 -0.8314696207458844 0
    outer loop
      vertex 11.100000001490116 4.691025406122208 0
      vertex 10.991238571703434 4.618353344500065 2
      vertex 10.991238571703434 4.618353344500065 0
    endloop
  endfacet
  facet normal 0.5555702203832522 -0.8314696207458844 0
    outer loop
      vertex 11.100000001490116 4.691025406122208 0
      vertex 11.100000001490116 4.691025406122208 2
      vertex 10.991238571703434 4.618353344500065 2
    endloop
  endfacet
  facet normal 0.4422887070837332 -0.8968727332159228 0
    outer loop
      vertex 11.217316567897797 4.748879536986351 0
      vertex 11.100000001490116 4.691025406122208 2
      vertex 11.100000001490116 4.691025406122208 0
    endloop
  endfacet
  facet normal 0.4422887070837332 -0.8968727332159228 0
    outer loop
      vertex 11.217316567897797 4.748879536986351 0
      vertex 11.217316567897797 4.748879536986351 2
      vertex 11.100000001490116 4.691025406122208 2
    endloop
  endfacet
  facet normal 0.32143945792867507 -0.9469301319984066 0
    outer loop
      vertex 11.341180957853794 4.790925830602646 0
      vertex 11.217316567897797 4.748879536986351 2
      vertex 11.217316567897797 4.748879536986351 0
    endloop
  endfacet
  facet normal 0.32143945792867507 -0.9469301319984066 0
    outer loop
      vertex 11.341180957853794 4.790925830602646 0
      vertex 11.341180957853794 4.790925830602646 2
      vertex 11.217316567897797 4.748879536986351 2
    endloop
  endfacet
  facet normal 0.19509032949101543 -0.9807852789163829 0
    outer loop
      vertex 11.46947380900383 4.816444866359234 0
      vertex 11.341180957853794 4.790925830602646 2
      vertex 11.341180957853794 4.790925830602646 0
    endloop
  endfacet
  facet normal 0.19509032949101543 -0.9807852789163829 0
    outer loop
      vertex 11.46947380900383 4.816444866359234 0
      vertex 11.46947380900383 4.816444866359234 2
      vertex 11.341180957853794 4.790925830602646 2
    endloop
  endfacet
  facet normal 0.06540311383340917 -0.9978589242477587 0
    outer loop
      vertex 11.600000001490116 4.825000002980232 0
      vertex 11.46947380900383 4.816444866359234 2
      vertex 11.46947380900383 4.816444866359234 0
    endloop
  endfacet
  facet normal 0.06540311383340917 -0.9978589242477587 0
    outer loop
      vertex 11.600000001490116 4.825000002980232 0
      vertex 11.600000001490116 4.825000002980232 2
      vertex 11.46947380900383 4.816444866359234 2
    endloop
  endfacet
  facet normal 0 -1 0
    outer loop
      vertex 15.06726336479187 4.825000002980232 0
      vertex 11.600000001490116 4.825000002980232 2
      vertex 11.600000001490116 4.825000002980232 0
    endloop
  endfacet
  facet normal 0 -1 0
    outer loop
      vertex 15.06726336479187 4.825000002980232 0
      vertex 15.06726336479187 4.825000002980232 2
      vertex 11.600000001490116 4.825000002980232 2
    endloop
  endfacet
  facet normal 0.0654029693087045 -0.9978589337203955 0
    outer loop
      vertex 15.097986310720444 4.827013686299324 0
      vertex 15.06726336479187 4.825000002980232 2
      vertex 15.06726336479187 4.825000002980232 0
    endloop
  endfacet
  facet normal 0.0654029693087045 -0.9978589337203955 0
    outer loop
      vertex 15.097986310720444 4.827013686299324 0
      vertex 15.097986310720444 4.827013686299324 2
      vertex 15.06726336479187 4.825000002980232 2
    endloop
  endfacet
  facet normal 0.997858918962554 -0.06540319447001959 0
    outer loop
      vertex 15.100000001490116 4.857736639678478 0
      vertex 15.097986310720444 4.827013686299324 2
      vertex 15.097986310720444 4.827013686299324 0
    endloop
  endfacet
  facet normal 0.997858918962554 -0.06540319447001959 0
    outer loop
      vertex 15.100000001490116 4.857736639678478 0
      vertex 15.100000001490116 4.857736639678478 2
      vertex 15.097986310720444 4.827013686299324 2
    endloop
  endfacet
  facet normal 1 0 0
    outer loop
      vertex 15.100000001490116 10.792263358831406 0
      vertex 15.100000001490116 4.857736639678478 2
      vertex 15.100000001490116 4.857736639678478 0
    endloop
  endfacet
  facet normal 1 0 0
    outer loop
      vertex 15.100000001490116 10.792263358831406 0
      vertex 15.100000001490116 10.792263358831406 2
      vertex 15.100000001490116 4.857736639678478 2
    endloop
  endfacet
  facet normal 0.997858918962554 0.06540319447001959 0
    outer loop
      vertex 15.097986310720444 10.82298631221056 0
      vertex 15.100000001490116 10.792263358831406 2
      vertex 15.100000001490116 10.792263358831406 0
    endloop
  endfacet
  facet normal 0.997858918962554 0.06540319447001959 0
    outer loop
      vertex 15.097986310720444 10.82298631221056 0
      vertex 15.097986310720444 10.82298631221056 2
      vertex 15.100000001490116 10.792263358831406 2
    endloop
  endfacet
  facet normal 0.06540321026301495 0.9978589179274252 0
    outer loop
      vertex 15.06726336479187 10.825000002980232 0
      vertex 15.097986310720444 10.82298631221056 2
      vertex 15.097986310720444 10.82298631221056 0
    endloop
  endfacet
  facet normal 0.06540321026301495 0.9978589179274252 0
    outer loop
      vertex 15.06726336479187 10.825000002980232 0
      vertex 15.06726336479187 10.825000002980232 2
      vertex 15.097986310720444 10.82298631221056 2
    endloop
  endfacet
  facet normal 0 1 0
    outer loop
      vertex 11.600000001490116 10.825000002980232 0
      vertex 15.06726336479187 10.825000002980232 2
      vertex 15.06726336479187 10.825000002980232 0
    endloop
  endfacet
  facet normal 0 1 0
    outer loop
      vertex 11.600000001490116 10.825000002980232 0
      vertex 11.600000001490116 10.825000002980232 2
      vertex 15.06726336479187 10.825000002980232 2
    endloop
  endfacet
  facet normal 0.06540311383340917 0.9978589242477587 0
    outer loop
      vertex 11.46947380900383 10.83355513960123 0
      vertex 11.600000001490116 10.825000002980232 2
      vertex 11.600000001490116 10.825000002980232 0
    endloop
  endfacet
  facet normal 0.06540311383340917 0.9978589242477587 0
    outer loop
      vertex 11.46947380900383 10.83355513960123 0
      vertex 11.46947380900383 10.83355513960123 2
      vertex 11.600000001490116 10.825000002980232 2
    endloop
  endfacet
  facet normal 0.19509032949101543 0.9807852789163829 0
    outer loop
      vertex 11.341180957853794 10.859074175357819 0
      vertex 11.46947380900383 10.83355513960123 2
      vertex 11.46947380900383 10.83355513960123 0
    endloop
  endfacet
  facet normal 0.19509032949101543 0.9807852789163829 0
    outer loop
      vertex 11.341180957853794 10.859074175357819 0
      vertex 11.341180957853794 10.859074175357819 2
      vertex 11.46947380900383 10.83355513960123 2
    endloop
  endfacet
  facet normal 0.32143945792867507 0.9469301319984066 0
    outer loop
      vertex 11.217316567897797 10.901120468974113 0
      vertex 11.341180957853794 10.859074175357819 2
      vertex 11.341180957853794 10.859074175357819 0
    endloop
  endfacet
  facet normal 0.32143945792867507 0.9469301319984066 0
    outer loop
      vertex 11.217316567897797 10.901120468974113 0
      vertex 11.217316567897797 10.901120468974113 2
      vertex 11.341180957853794 10.859074175357819 2
    endloop
  endfacet
  facet normal 0.4422887070837332 0.8968727332159228 0
    outer loop
      vertex 11.100000001490116 10.958974599838257 0
      vertex 11.217316567897797 10.901120468974113 2
      vertex 11.217316567897797 10.901120468974113 0
    endloop
  endfacet
  facet normal 0.4422887070837332 0.8968727332159228 0
    outer loop
      vertex 11.100000001490116 10.958974599838257 0
      vertex 11.100000001490116 10.958974599838257 2
      vertex 11.217316567897797 10.901120468974113 2
    endloop
  endfacet
  facet normal 0.5555702203832522 0.8314696207458844 0
    outer loop
      vertex 10.991238571703434 11.0316466614604 0
      vertex 11.100000001490116 10.958974599838257 2
      vertex 11.100000001490116 10.958974599838257 0
    endloop
  endfacet
  facet normal 0.5555702203832522 0.8314696207458844 0
    outer loop
      vertex 10.991238571703434 11.0316466614604 0
      vertex 10.991238571703434 11.0316466614604 2
      vertex 11.100000001490116 10.958974599838257 2
    endloop
  endfacet
  facet normal 0.6593458006501332 0.7518398201512305 0
    outer loop
      vertex 10.892893217504025 11.11789321899414 0
      vertex 10.991238571703434 11.0316466614604 2
      vertex 10.991238571703434 11.0316466614604 0
    endloop
  endfacet
  facet normal 0.6593458006501332 0.7518398201512305 0
    outer loop
      vertex 10.892893217504025 11.11789321899414 0
      vertex 10.892893217504025 11.11789321899414 2
      vertex 10.991238571703434 11.0316466614604 2
    endloop
  endfacet
  facet normal 0.7518398201512305 0.6593458006501332 0
    outer loop
      vertex 10.806646659970284 11.21623857319355 0
      vertex 10.892893217504025 11.11789321899414 2
      vertex 10.892893217504025 11.11789321899414 0
    endloop
  endfacet
  facet normal 0.7518398201512305 0.6593458006501332 0
    outer loop
      vertex 10.806646659970284 11.21623857319355 0
      vertex 10.806646659970284 11.21623857319355 2
      vertex 10.892893217504025 11.11789321899414 2
    endloop
  endfacet
  facet normal 0.8314696207458844 0.5555702203832522 0
    outer loop
      vertex 10.73397459834814 11.325000002980232 0
      vertex 10.806646659970284 11.21623857319355 2
      vertex 10.806646659970284 11.21623857319355 0
    endloop
  endfacet
  facet normal 0.8314696207458844 0.5555702203832522 0
    outer loop
      vertex 10.73397459834814 11.325000002980232 0
      vertex 10.73397459834814 11.325000002980232 2
      vertex 10.806646659970284 11.21623857319355 2
    endloop
  endfacet
  facet normal 0.8968727332159228 0.4422887070837332 0
    outer loop
      vertex 10.676120467483997 11.442316569387913 0
      vertex 10.73397459834814 11.325000002980232 2
      vertex 10.73397459834814 11.325000002980232 0
    endloop
  endfacet
  facet normal 0.8968727332159228 0.4422887070837332 0
    outer loop
      vertex 10.676120467483997 11.442316569387913 0
      vertex 10.676120467483997 11.442316569387913 2
      vertex 10.73397459834814 11.325000002980232 2
    endloop
  endfacet
  facet normal 0.9469301319984066 0.32143945792867507 0
    outer loop
      vertex 10.634074173867702 11.56618095934391 0
      vertex 10.676120467483997 11.442316569387913 2
      vertex 10.676120467483997 11.442316569387913 0
    endloop
  endfacet
  facet normal 0.9469301319984066 0.32143945792867507 0
    outer loop
      vertex 10.634074173867702 11.56618095934391 0
      vertex 10.634074173867702 11.56618095934391 2
      vertex 10.676120467483997 11.442316569387913 2
    endloop
  endfacet
  facet normal 0.9807852789163829 0.19509032949101543 0
    outer loop
      vertex 10.608555138111115 11.694473810493946 0
      vertex 10.634074173867702 11.56618095934391 2
      vertex 10.634074173867702 11.56618095934391 0
    endloop
  endfacet
  facet normal 0.9807852789163829 0.19509032949101543 0
    outer loop
      vertex 10.608555138111115 11.694473810493946 0
      vertex 10.608555138111115 11.694473810493946 2
      vertex 10.634074173867702 11.56618095934391 2
    endloop
  endfacet
  facet normal 0.9978589242477587 0.06540311383340917 0
    outer loop
      vertex 10.600000001490116 11.825000002980232 0
      vertex 10.608555138111115 11.694473810493946 2
      vertex 10.608555138111115 11.694473810493946 0
    endloop
  endfacet
  facet normal 0.9978589242477587 0.06540311383340917 0
    outer loop
      vertex 10.600000001490116 11.825000002980232 0
      vertex 10.600000001490116 11.825000002980232 2
      vertex 10.608555138111115 11.694473810493946 2
    endloop
  endfacet
  facet normal 1 0 0
    outer loop
      vertex 10.600000001490116 15.667263358831406 0
      vertex 10.600000001490116 11.825000002980232 2
      vertex 10.600000001490116 11.825000002980232 0
    endloop
  endfacet
  facet normal 1 0 0
    outer loop
      vertex 10.600000001490116 15.667263358831406 0
      vertex 10.600000001490116 15.667263358831406 2
      vertex 10.600000001490116 11.825000002980232 2
    endloop
  endfacet
  facet normal 0.997858918962554 0.06540319447001959 0
    outer loop
      vertex 10.597986310720444 15.69798631221056 0
      vertex 10.600000001490116 15.667263358831406 2
      vertex 10.600000001490116 15.667263358831406 0
    endloop
  endfacet
  facet normal 0.997858918962554 0.06540319447001959 0
    outer loop
      vertex 10.597986310720444 15.69798631221056 0
      vertex 10.597986310720444 15.69798631221056 2
      vertex 10.600000001490116 15.667263358831406 2
    endloop
  endfacet
  facet normal 0.06540321026301495 0.9978589179274252 0
    outer loop
      vertex 10.56726336479187 15.700000002980232 0
      vertex 10.597986310720444 15.69798631221056 2
      vertex 10.597986310720444 15.69798631221056 0
    endloop
  endfacet
  facet normal 0.06540321026301495 0.9978589179274252 0
    outer loop
      vertex 10.56726336479187 15.700000002980232 0
      vertex 10.56726336479187 15.700000002980232 2
      vertex 10.597986310720444 15.69798631221056 2
    endloop
  endfacet
  facet normal 0 1 0
    outer loop
      vertex 5.326184950768948 15.700000002980232 0
      vertex 10.56726336479187 15.700000002980232 2
      vertex 10.56726336479187 15.700000002980232 0
    endloop
  endfacet
  facet normal 0 1 0
    outer loop
      vertex 5.326184950768948 15.700000002980232 0
      vertex 5.326184950768948 15.700000002980232 2
      vertex 10.56726336479187 15.700000002980232 2
    endloop
  endfacet
  facet normal -0.03271926509142061 0.9994645815094586 0
    outer loop
      vertex 5.293492041528225 15.698929741978645 0
      vertex 5.326184950768948 15.700000002980232 2
      vertex 5.326184950768948 15.700000002980232 0
    endloop
  endfacet
  facet normal -0.03271926509142061 0.9994645815094586 0
    outer loop
      vertex 5.293492041528225 15.698929741978645 0
      vertex 5.293492041528225 15.698929741978645 2
      vertex 5.326184950768948 15.700000002980232 2
    endloop
  endfacet
  facet normal -0.06540316300367044 0.9978589210249691 0
    outer loop
      vertex 5.032666519284248 15.681834325194359 0
      vertex 5.293492041528225 15.698929741978645 2
      vertex 5.293492041528225 15.698929741978645 0
    endloop
  endfacet
  facet normal -0.06540316300367044 0.9978589210249691 0
    outer loop
      vertex 5.032666519284248 15.681834325194359 0
      vertex 5.032666519284248 15.681834325194359 2
      vertex 5.293492041528225 15.698929741978645 2
    endloop
  endfacet
  facet normal -0.13052628408953226 0.9914448492789595 0
    outer loop
      vertex 5.0019083097577095 15.67778492718935 0
      vertex 5.032666519284248 15.681834325194359 2
      vertex 5.032666519284248 15.681834325194359 0
    endloop
  endfacet
  facet normal -0.13052628408953226 0.9914448492789595 0
    outer loop
      vertex 5.0019083097577095 15.67778492718935 0
      vertex 5.0019083097577095 15.67778492718935 2
      vertex 5.032666519284248 15.681834325194359 2
    endloop
  endfacet
  facet normal -0.9914449056087038 0.13052585622223806 0
    outer loop
      vertex 5 15.663289837539196 0
      vertex 5.0019083097577095 15.67778492718935 2
      vertex 5.0019083097577095 15.67778492718935 0
    endloop
  endfacet
  facet normal -0.9914449056087038 0.13052585622223806 0
    outer loop
      vertex 5 15.663289837539196 0
      vertex 5 15.663289837539196 2
      vertex 5.0019083097577095 15.67778492718935 2
    endloop
  endfacet
  facet normal -1 0 0
    outer loop
      vertex 5 11.825000002980232 0
      vertex 5 15.663289837539196 2
      vertex 5 15.663289837539196 0
    endloop
  endfacet
  facet normal -1 0 0
    outer loop
      vertex 5 11.825000002980232 0
      vertex 5 11.825000002980232 2
      vertex 5 15.663289837539196 2
    endloop
  endfacet
  facet normal -0.9978589242477587 0.06540311383340917 0
    outer loop
      vertex 4.991444863379002 11.694473810493946 0
      vertex 5 11.825000002980232 2
      vertex 5 11.825000002980232 0
    endloop
  endfacet
  facet normal -0.9978589242477587 0.06540311383340917 0
    outer loop
      vertex 4.991444863379002 11.694473810493946 0
      vertex 4.991444863379002 11.694473810493946 2
      vertex 5 11.825000002980232 2
    endloop
  endfacet
  facet normal -0.9807852789163829 0.19509032949101543 0
    outer loop
      vertex 4.965925827622414 11.56618095934391 0
      vertex 4.991444863379002 11.694473810493946 2
      vertex 4.991444863379002 11.694473810493946 0
    endloop
  endfacet
  facet normal -0.9807852789163829 0.19509032949101543 0
    outer loop
      vertex 4.965925827622414 11.56618095934391 0
      vertex 4.965925827622414 11.56618095934391 2
      vertex 4.991444863379002 11.694473810493946 2
    endloop
  endfacet
  facet normal -0.9469301319984066 0.32143945792867507 0
    outer loop
      vertex 4.923879534006119 11.442316569387913 0
      vertex 4.965925827622414 11.56618095934391 2
      vertex 4.965925827622414 11.56618095934391 0
    endloop
  endfacet
  facet normal -0.9469301319984066 0.32143945792867507 0
    outer loop
      vertex 4.923879534006119 11.442316569387913 0
      vertex 4.923879534006119 11.442316569387913 2
      vertex 4.965925827622414 11.56618095934391 2
    endloop
  endfacet
  facet normal -0.8968727332159228 0.4422887070837332 0
    outer loop
      vertex 4.866025403141975 11.325000002980232 0
      vertex 4.923879534006119 11.442316569387913 2
      vertex 4.923879534006119 11.442316569387913 0
    endloop
  endfacet
  facet normal -0.8968727332159228 0.4422887070837332 0
    outer loop
      vertex 4.866025403141975 11.325000002980232 0
      vertex 4.866025403141975 11.325000002980232 2
      vertex 4.923879534006119 11.442316569387913 2
    endloop
  endfacet
  facet normal -0.8314696207458844 0.5555702203832522 0
    outer loop
      vertex 4.793353341519833 11.21623857319355 0
      vertex 4.866025403141975 11.325000002980232 2
      vertex 4.866025403141975 11.325000002980232 0
    endloop
  endfacet
  facet normal -0.8314696207458844 0.5555702203832522 0
    outer loop
      vertex 4.793353341519833 11.21623857319355 0
      vertex 4.793353341519833 11.21623857319355 2
      vertex 4.866025403141975 11.325000002980232 2
    endloop
  endfacet
  facet normal -0.7518398201512305 0.6593458006501332 0
    outer loop
      vertex 4.707106783986092 11.11789321899414 0
      vertex 4.793353341519833 11.21623857319355 2
      vertex 4.793353341519833 11.21623857319355 0
    endloop
  endfacet
  facet normal -0.7518398201512305 0.6593458006501332 0
    outer loop
      vertex 4.707106783986092 11.11789321899414 0
      vertex 4.707106783986092 11.11789321899414 2
      vertex 4.793353341519833 11.21623857319355 2
    endloop
  endfacet
  facet normal -0.6593458006501332 0.7518398201512305 0
    outer loop
      vertex 4.608761429786682 11.0316466614604 0
      vertex 4.707106783986092 11.11789321899414 2
      vertex 4.707106783986092 11.11789321899414 0
    endloop
  endfacet
  facet normal -0.6593458006501332 0.7518398201512305 0
    outer loop
      vertex 4.608761429786682 11.0316466614604 0
      vertex 4.608761429786682 11.0316466614604 2
      vertex 4.707106783986092 11.11789321899414 2
    endloop
  endfacet
  facet normal -0.5555702203832522 0.8314696207458844 0
    outer loop
      vertex 4.5 10.958974599838257 0
      vertex 4.608761429786682 11.0316466614604 2
      vertex 4.608761429786682 11.0316466614604 0
    endloop
  endfacet
  facet normal -0.5555702203832522 0.8314696207458844 0
    outer loop
      vertex 4.5 10.958974599838257 0
      vertex 4.5 10.958974599838257 2
      vertex 4.608761429786682 11.0316466614604 2
    endloop
  endfacet
  facet normal -0.4422887070837332 0.8968727332159228 0
    outer loop
      vertex 4.3826834335923195 10.901120468974113 0
      vertex 4.5 10.958974599838257 2
      vertex 4.5 10.958974599838257 0
    endloop
  endfacet
  facet normal -0.4422887070837332 0.8968727332159228 0
    outer loop
      vertex 4.3826834335923195 10.901120468974113 0
      vertex 4.3826834335923195 10.901120468974113 2
      vertex 4.5 10.958974599838257 2
    endloop
  endfacet
  facet normal -0.32143945792867507 0.9469301319984066 0
    outer loop
      vertex 4.258819043636322 10.859074175357819 0
      vertex 4.3826834335923195 10.901120468974113 2
      vertex 4.3826834335923195 10.901120468974113 0
    endloop
  endfacet
  facet normal -0.32143945792867507 0.9469301319984066 0
    outer loop
      vertex 4.258819043636322 10.859074175357819 0
      vertex 4.258819043636322 10.859074175357819 2
      vertex 4.3826834335923195 10.901120468974113 2
    endloop
  endfacet
  facet normal -0.19509032949101543 0.9807852789163829 0
    outer loop
      vertex 4.130526192486286 10.83355513960123 0
      vertex 4.258819043636322 10.859074175357819 2
      vertex 4.258819043636322 10.859074175357819 0
    endloop
  endfacet
  facet normal -0.19509032949101543 0.9807852789163829 0
    outer loop
      vertex 4.130526192486286 10.83355513960123 0
      vertex 4.130526192486286 10.83355513960123 2
      vertex 4.258819043636322 10.859074175357819 2
    endloop
  endfacet
  facet normal -0.06540311383340917 0.9978589242477587 0
    outer loop
      vertex 4 10.825000002980232 0
      vertex 4.130526192486286 10.83355513960123 2
      vertex 4.130526192486286 10.83355513960123 0
    endloop
  endfacet
  facet normal -0.06540311383340917 0.9978589242477587 0
    outer loop
      vertex 4 10.825000002980232 0
      vertex 4 10.825000002980232 2
      vertex 4.130526192486286 10.83355513960123 2
    endloop
  endfacet
  facet normal 0 1 0
    outer loop
      vertex 0.032736636698246 10.825000002980232 0
      vertex 4 10.825000002980232 2
      vertex 4 10.825000002980232 0
    endloop
  endfacet
  facet normal 0 1 0
    outer loop
      vertex 0.032736636698246 10.825000002980232 0
      vertex 0.032736636698246 10.825000002980232 2
      vertex 4 10.825000002980232 2
    endloop
  endfacet
  facet normal -0.06540319447001959 0.997858918962554 0
    outer loop
      vertex 0.002013683319091797 10.82298631221056 0
      vertex 0.032736636698246 10.825000002980232 2
      vertex 0.032736636698246 10.825000002980232 0
    endloop
  endfacet
  facet normal -0.06540319447001959 0.997858918962554 0
    outer loop
      vertex 0.002013683319091797 10.82298631221056 0
      vertex 0.002013683319091797 10.82298631221056 2
      vertex 0.032736636698246 10.825000002980232 2
    endloop
  endfacet
  facet normal -0.9978589347555167 0.06540295351576682 0
    outer loop
      vertex 0 10.792263358831406 0
      vertex 0.002013683319091797 10.82298631221056 2
      vertex 0.002013683319091797 10.82298631221056 0
    endloop
  endfacet
  facet normal -0.9978589347555167 0.06540295351576682 0
    outer loop
      vertex 0 10.792263358831406 0
      vertex 0 10.792263358831406 2
      vertex 0.002013683319091797 10.82298631221056 2
    endloop
  endfacet
  facet normal -1 0 0
    outer loop
      vertex 0 4.857736639678478 0
      vertex 0 10.792263358831406 2
      vertex 0 10.792263358831406 0
    endloop
  endfacet
  facet normal -1 0 0
    outer loop
      vertex 0 4.857736639678478 0
      vertex 0 4.857736639678478 2
      vertex 0 10.792263358831406 2
    endloop
  endfacet
  facet normal -0.9978589347555167 -0.06540295351576682 0
    outer loop
      vertex 0.002013683319091797 4.827013686299324 0
      vertex 0 4.857736639678478 2
      vertex 0 4.857736639678478 0
    endloop
  endfacet
  facet normal -0.9978589347555167 -0.06540295351576682 0
    outer loop
      vertex 0.002013683319091797 4.827013686299324 0
      vertex 0.002013683319091797 4.827013686299324 2
      vertex 0 4.857736639678478 2
    endloop
  endfacet
  facet normal -0.06540295351576682 -0.9978589347555167 0
    outer loop
      vertex 0.032736636698246 4.825000002980232 0
      vertex 0.002013683319091797 4.827013686299324 2
      vertex 0.002013683319091797 4.827013686299324 0
    endloop
  endfacet
  facet normal -0.06540295351576682 -0.9978589347555167 0
    outer loop
      vertex 0.032736636698246 4.825000002980232 0
      vertex 0.032736636698246 4.825000002980232 2
      vertex 0.002013683319091797 4.827013686299324 2
    endloop
  endfacet
  facet normal 0 -1 0
    outer loop
      vertex 4 4.825000002980232 0
      vertex 0.032736636698246 4.825000002980232 2
      vertex 0.032736636698246 4.825000002980232 0
    endloop
  endfacet
  facet normal 0 -1 0
    outer loop
      vertex 4 4.825000002980232 0
      vertex 4 4.825000002980232 2
      vertex 0.032736636698246 4.825000002980232 2
    endloop
  endfacet
  facet normal -0.06540311383340917 -0.9978589242477587 0
    outer loop
      vertex 4.130526192486286 4.816444866359234 0
      vertex 4 4.825000002980232 2
      vertex 4 4.825000002980232 0
    endloop
  endfacet
  facet normal -0.06540311383340917 -0.9978589242477587 0
    outer loop
      vertex 4.130526192486286 4.816444866359234 0
      vertex 4.130526192486286 4.816444866359234 2
      vertex 4 4.825000002980232 2
    endloop
  endfacet
  facet normal -0.19509032949101543 -0.9807852789163829 0
    outer loop
      vertex 4.258819043636322 4.790925830602646 0
      vertex 4.130526192486286 4.816444866359234 2
      vertex 4.130526192486286 4.816444866359234 0
    endloop
  endfacet
  facet normal -0.19509032949101543 -0.9807852789163829 0
    outer loop
      vertex 4.258819043636322 4.790925830602646 0
      vertex 4.258819043636322 4.790925830602646 2
      vertex 4.130526192486286 4.816444866359234 2
    endloop
  endfacet
  facet normal -0.32143945792867507 -0.9469301319984066 0
    outer loop
      vertex 4.3826834335923195 4.748879536986351 0
      vertex 4.258819043636322 4.790925830602646 2
      vertex 4.258819043636322 4.790925830602646 0
    endloop
  endfacet
  facet normal -0.32143945792867507 -0.9469301319984066 0
    outer loop
      vertex 4.3826834335923195 4.748879536986351 0
      vertex 4.3826834335923195 4.748879536986351 2
      vertex 4.258819043636322 4.790925830602646 2
    endloop
  endfacet
  facet normal -0.4422887070837332 -0.8968727332159228 0
    outer loop
      vertex 4.5 4.691025406122208 0
      vertex 4.3826834335923195 4.748879536986351 2
      vertex 4.3826834335923195 4.748879536986351 0
    endloop
  endfacet
  facet normal -0.4422887070837332 -0.8968727332159228 0
    outer loop
      vertex 4.5 4.691025406122208 0
      vertex 4.5 4.691025406122208 2
      vertex 4.3826834335923195 4.748879536986351 2
    endloop
  endfacet
  facet normal -0.5555702203832522 -0.8314696207458844 0
    outer loop
      vertex 4.608761429786682 4.618353344500065 0
      vertex 4.5 4.691025406122208 2
      vertex 4.5 4.691025406122208 0
    endloop
  endfacet
  facet normal -0.5555702203832522 -0.8314696207458844 0
    outer loop
      vertex 4.608761429786682 4.618353344500065 0
      vertex 4.608761429786682 4.618353344500065 2
      vertex 4.5 4.691025406122208 2
    endloop
  endfacet
  facet normal -0.6593458006501332 -0.7518398201512305 0
    outer loop
      vertex 4.707106783986092 4.532106786966324 0
      vertex 4.608761429786682 4.618353344500065 2
      vertex 4.608761429786682 4.618353344500065 0
    endloop
  endfacet
  facet normal -0.6593458006501332 -0.7518398201512305 0
    outer loop
      vertex 4.707106783986092 4.532106786966324 0
      vertex 4.707106783986092 4.532106786966324 2
      vertex 4.608761429786682 4.618353344500065 2
    endloop
  endfacet
  facet normal -0.7518398201512305 -0.6593458006501332 0
    outer loop
      vertex 4.793353341519833 4.433761432766914 0
      vertex 4.707106783986092 4.532106786966324 2
      vertex 4.707106783986092 4.532106786966324 0
    endloop
  endfacet
  facet normal -0.7518398201512305 -0.6593458006501332 0
    outer loop
      vertex 4.793353341519833 4.433761432766914 0
      vertex 4.793353341519833 4.433761432766914 2
      vertex 4.707106783986092 4.532106786966324 2
    endloop
  endfacet
  facet normal -0.8314696207458844 -0.5555702203832522 0
    outer loop
      vertex 4.866025403141975 4.325000002980232 0
      vertex 4.793353341519833 4.433761432766914 2
      vertex 4.793353341519833 4.433761432766914 0
    endloop
  endfacet
  facet normal -0.8314696207458844 -0.5555702203832522 0
    outer loop
      vertex 4.866025403141975 4.325000002980232 0
      vertex 4.866025403141975 4.325000002980232 2
      vertex 4.793353341519833 4.433761432766914 2
    endloop
  endfacet
  facet normal -0.8968727332159228 -0.4422887070837332 0
    outer loop
      vertex 4.923879534006119 4.207683436572552 0
      vertex 4.866025403141975 4.325000002980232 2
      vertex 4.866025403141975 4.325000002980232 0
    endloop
  endfacet
  facet normal -0.8968727332159228 -0.4422887070837332 0
    outer loop
      vertex 4.923879534006119 4.207683436572552 0
      vertex 4.923879534006119 4.207683436572552 2
      vertex 4.866025403141975 4.325000002980232 2
    endloop
  endfacet
  facet normal -0.9469301319984066 -0.32143945792867507 0
    outer loop
      vertex 4.965925827622414 4.083819046616554 0
      vertex 4.923879534006119 4.207683436572552 2
      vertex 4.923879534006119 4.207683436572552 0
    endloop
  endfacet
  facet normal -0.9469301319984066 -0.32143945792867507 0
    outer loop
      vertex 4.965925827622414 4.083819046616554 0
      vertex 4.965925827622414 4.083819046616554 2
      vertex 4.923879534006119 4.207683436572552 2
    endloop
  endfacet
  facet normal -0.9807852789163829 -0.19509032949101543 0
    outer loop
      vertex 4.991444863379002 3.9555261954665184 0
      vertex 4.965925827622414 4.083819046616554 2
      vertex 4.965925827622414 4.083819046616554 0
    endloop
  endfacet
  facet normal -0.9807852789163829 -0.19509032949101543 0
    outer loop
      vertex 4.991444863379002 3.9555261954665184 0
      vertex 4.991444863379002 3.9555261954665184 2
      vertex 4.965925827622414 4.083819046616554 2
    endloop
  endfacet
  facet normal -0.9978589242477587 -0.06540311383340917 0
    outer loop
      vertex 5 3.8250000029802322 0
      vertex 4.991444863379002 3.9555261954665184 2
      vertex 4.991444863379002 3.9555261954665184 0
    endloop
  endfacet
  facet normal -0.9978589242477587 -0.06540311383340917 0
    outer loop
      vertex 5 3.8250000029802322 0
      vertex 5 3.8250000029802322 2
      vertex 4.991444863379002 3.9555261954665184 2
    endloop
  endfacet
  facet normal -1 0 0
    outer loop
      vertex 5 1.3327366337180138 0
      vertex 5 3.8250000029802322 2
      vertex 5 3.8250000029802322 0
    endloop
  endfacet
  facet normal -1 0 0
    outer loop
      vertex 5 1.3327366337180138 0
      vertex 5 1.3327366337180138 2
      vertex 5 3.8250000029802322 2
    endloop
  endfacet
  facet normal -0.9978589347555167 -0.06540295351576682 0
    outer loop
      vertex 5.002013683319092 1.3020136803388596 0
      vertex 5 1.3327366337180138 2
      vertex 5 1.3327366337180138 0
    endloop
  endfacet
  facet normal -0.9978589347555167 -0.06540295351576682 0
    outer loop
      vertex 5.002013683319092 1.3020136803388596 0
      vertex 5.002013683319092 1.3020136803388596 2
      vertex 5 1.3327366337180138 2
    endloop
  endfacet
  facet normal -0.06540295351576682 -0.9978589347555167 0
    outer loop
      vertex 5.032736636698246 1.2999999970197678 0
      vertex 5.002013683319092 1.3020136803388596 2
      vertex 5.002013683319092 1.3020136803388596 0
    endloop
  endfacet
  facet normal -0.06540295351576682 -0.9978589347555167 0
    outer loop
      vertex 5.032736636698246 1.2999999970197678 0
      vertex 5.032736636698246 1.2999999970197678 2
      vertex 5.002013683319092 1.3020136803388596 2
    endloop
  endfacet
  facet normal 0 -1 0
    outer loop
      vertex 10.56726336479187 1.2999999970197678 0
      vertex 5.032736636698246 1.2999999970197678 2
      vertex 5.032736636698246 1.2999999970197678 0
    endloop
  endfacet
  facet normal 0 -1 0
    outer loop
      vertex 10.56726336479187 1.2999999970197678 0
      vertex 10.56726336479187 1.2999999970197678 2
      vertex 5.032736636698246 1.2999999970197678 2
    endloop
  endfacet
  facet normal 0 0 1
    outer loop
      vertex 0 4.857736639678478 2
      vertex 0.002013683319091797 4.827013686299324 2
      vertex 0.032736636698246 4.825000002980232 2
    endloop
  endfacet
  facet normal 0 0 1
    outer loop
      vertex 5 1.3327366337180138 2
      vertex 5.002013683319092 1.3020136803388596 2
      vertex 5.032736636698246 1.2999999970197678 2
    endloop
  endfacet
  facet normal 0 0 1
    outer loop
      vertex 0.032736636698246 10.825000002980232 2
      vertex 0.002013683319091797 10.82298631221056 2
      vertex 0 10.792263358831406 2
    endloop
  endfacet
  facet normal 0 0 1
    outer loop
      vertex 15.06726336479187 4.825000002980232 2
      vertex 15.097986310720444 4.827013686299324 2
      vertex 15.100000001490116 4.857736639678478 2
    endloop
  endfacet
  facet normal 0 0 1
    outer loop
      vertex 10.56726336479187 1.2999999970197678 2
      vertex 10.597986310720444 1.3020136803388596 2
      vertex 10.600000001490116 1.3327366337180138 2
    endloop
  endfacet
  facet normal 0 0 1
    outer loop
      vertex 15.100000001490116 10.792263358831406 2
      vertex 15.097986310720444 10.82298631221056 2
      vertex 15.06726336479187 10.825000002980232 2
    endloop
  endfacet
  facet normal 0 0 1
    outer loop
      vertex 10.600000001490116 15.667263358831406 2
      vertex 10.597986310720444 15.69798631221056 2
      vertex 10.56726336479187 15.700000002980232 2
    endloop
  endfacet
  facet normal 0 0 1
    outer loop
      vertex 5.032666519284248 15.681834325194359 2
      vertex 5.0019083097577095 15.67778492718935 2
      vertex 5 15.663289837539196 2
    endloop
  endfacet
  facet normal 0 0 1
    outer loop
      vertex 5.032666519284248 15.681834325194359 2
      vertex 5 15.663289837539196 2
      vertex 5 11.825000002980232 2
    endloop
  endfacet
  facet normal 0 0 1
    outer loop
      vertex 5.293492041528225 15.698929741978645 2
      vertex 5.032666519284248 15.681834325194359 2
      vertex 5 11.825000002980232 2
    endloop
  endfacet
  facet normal 0 0 1
    outer loop
      vertex 5.326184950768948 15.700000002980232 2
      vertex 5.293492041528225 15.698929741978645 2
      vertex 5 11.825000002980232 2
    endloop
  endfacet
  facet normal 0 0 1
    outer loop
      vertex 10.56726336479187 15.700000002980232 2
      vertex 5.326184950768948 15.700000002980232 2
      vertex 5 11.825000002980232 2
    endloop
  endfacet
  facet normal 0 0 1
    outer loop
      vertex 10.600000001490116 15.667263358831406 2
      vertex 10.56726336479187 15.700000002980232 2
      vertex 5 11.825000002980232 2
    endloop
  endfacet
  facet normal 0 0 1
    outer loop
      vertex 10.600000001490116 11.825000002980232 2
      vertex 10.600000001490116 15.667263358831406 2
      vertex 5 11.825000002980232 2
    endloop
  endfacet
  facet normal 0 0 1
    outer loop
      vertex 10.608555138111115 11.694473810493946 2
      vertex 10.600000001490116 11.825000002980232 2
      vertex 5 11.825000002980232 2
    endloop
  endfacet
  facet normal 0 0 1
    outer loop
      vertex 10.608555138111115 11.694473810493946 2
      vertex 5 11.825000002980232 2
      vertex 4.991444863379002 11.694473810493946 2
    endloop
  endfacet
  facet normal 0 0 1
    outer loop
      vertex 10.634074173867702 11.56618095934391 2
      vertex 10.608555138111115 11.694473810493946 2
      vertex 4.991444863379002 11.694473810493946 2
    endloop
  endfacet
  facet normal 0 0 1
    outer loop
      vertex 10.634074173867702 11.56618095934391 2
      vertex 4.991444863379002 11.694473810493946 2
      vertex 4.965925827622414 11.56618095934391 2
    endloop
  endfacet
  facet normal 0 0 1
    outer loop
      vertex 10.676120467483997 11.442316569387913 2
      vertex 10.634074173867702 11.56618095934391 2
      vertex 4.965925827622414 11.56618095934391 2
    endloop
  endfacet
  facet normal 0 0 1
    outer loop
      vertex 10.676120467483997 11.442316569387913 2
      vertex 4.965925827622414 11.56618095934391 2
      vertex 4.923879534006119 11.442316569387913 2
    endloop
  endfacet
  facet normal 0 0 1
    outer loop
      vertex 10.73397459834814 11.325000002980232 2
      vertex 10.676120467483997 11.442316569387913 2
      vertex 4.923879534006119 11.442316569387913 2
    endloop
  endfacet
  facet normal 0 0 1
    outer loop
      vertex 10.73397459834814 11.325000002980232 2
      vertex 4.923879534006119 11.442316569387913 2
      vertex 4.866025403141975 11.325000002980232 2
    endloop
  endfacet
  facet normal 0 0 1
    outer loop
      vertex 10.806646659970284 11.21623857319355 2
      vertex 10.73397459834814 11.325000002980232 2
      vertex 4.866025403141975 11.325000002980232 2
    endloop
  endfacet
  facet normal 0 0 1
    outer loop
      vertex 10.806646659970284 11.21623857319355 2
      vertex 4.866025403141975 11.325000002980232 2
      vertex 4.793353341519833 11.21623857319355 2
    endloop
  endfacet
  facet normal 0 0 1
    outer loop
      vertex 10.892893217504025 11.11789321899414 2
      vertex 10.806646659970284 11.21623857319355 2
      vertex 4.793353341519833 11.21623857319355 2
    endloop
  endfacet
  facet normal 0 0 1
    outer loop
      vertex 10.892893217504025 11.11789321899414 2
      vertex 4.793353341519833 11.21623857319355 2
      vertex 4.707106783986092 11.11789321899414 2
    endloop
  endfacet
  facet normal 0 0 1
    outer loop
      vertex 4 10.825000002980232 2
      vertex 0.032736636698246 10.825000002980232 2
      vertex 0 10.792263358831406 2
    endloop
  endfacet
  facet normal 0 0 1
    outer loop
      vertex 4 10.825000002980232 2
      vertex 0 10.792263358831406 2
      vertex 0 4.857736639678478 2
    endloop
  endfacet
  facet normal 0 0 1
    outer loop
      vertex 4 10.825000002980232 2
      vertex 0 4.857736639678478 2
      vertex 0.032736636698246 4.825000002980232 2
    endloop
  endfacet
  facet normal 0 0 1
    outer loop
      vertex 4 10.825000002980232 2
      vertex 0.032736636698246 4.825000002980232 2
      vertex 4 4.825000002980232 2
    endloop
  endfacet
  facet normal 0 0 1
    outer loop
      vertex 4.130526192486286 10.83355513960123 2
      vertex 4 10.825000002980232 2
      vertex 4 4.825000002980232 2
    endloop
  endfacet
  facet normal 0 0 1
    outer loop
      vertex 4.130526192486286 10.83355513960123 2
      vertex 4 4.825000002980232 2
      vertex 4.130526192486286 4.816444866359234 2
    endloop
  endfacet
  facet normal 0 0 1
    outer loop
      vertex 4.258819043636322 10.859074175357819 2
      vertex 4.130526192486286 10.83355513960123 2
      vertex 4.130526192486286 4.816444866359234 2
    endloop
  endfacet
  facet normal 0 0 1
    outer loop
      vertex 4.258819043636322 10.859074175357819 2
      vertex 4.130526192486286 4.816444866359234 2
      vertex 4.258819043636322 4.790925830602646 2
    endloop
  endfacet
  facet normal 0 0 1
    outer loop
      vertex 4.3826834335923195 10.901120468974113 2
      vertex 4.258819043636322 10.859074175357819 2
      vertex 4.258819043636322 4.790925830602646 2
    endloop
  endfacet
  facet normal 0 0 1
    outer loop
      vertex 4.3826834335923195 10.901120468974113 2
      vertex 4.258819043636322 4.790925830602646 2
      vertex 4.3826834335923195 4.748879536986351 2
    endloop
  endfacet
  facet normal 0 0 1
    outer loop
      vertex 4.5 10.958974599838257 2
      vertex 4.3826834335923195 10.901120468974113 2
      vertex 4.3826834335923195 4.748879536986351 2
    endloop
  endfacet
  facet normal 0 0 1
    outer loop
      vertex 4.5 10.958974599838257 2
      vertex 4.3826834335923195 4.748879536986351 2
      vertex 4.5 4.691025406122208 2
    endloop
  endfacet
  facet normal 0 0 1
    outer loop
      vertex 4.608761429786682 11.0316466614604 2
      vertex 4.5 10.958974599838257 2
      vertex 4.5 4.691025406122208 2
    endloop
  endfacet
  facet normal 0 0 1
    outer loop
      vertex 4.608761429786682 11.0316466614604 2
      vertex 4.5 4.691025406122208 2
      vertex 4.608761429786682 4.618353344500065 2
    endloop
  endfacet
  facet normal 0 0 1
    outer loop
      vertex 4.707106783986092 11.11789321899414 2
      vertex 4.608761429786682 11.0316466614604 2
      vertex 4.608761429786682 4.618353344500065 2
    endloop
  endfacet
  facet normal 0 0 1
    outer loop
      vertex 10.892893217504025 11.11789321899414 2
      vertex 4.707106783986092 11.11789321899414 2
      vertex 4.608761429786682 4.618353344500065 2
    endloop
  endfacet
  facet normal 0 0 1
    outer loop
      vertex 10.892893217504025 11.11789321899414 2
      vertex 4.608761429786682 4.618353344500065 2
      vertex 4.707106783986092 4.532106786966324 2
    endloop
  endfacet
  facet normal 0 0 1
    outer loop
      vertex 10.991238571703434 11.0316466614604 2
      vertex 10.892893217504025 11.11789321899414 2
      vertex 4.707106783986092 4.532106786966324 2
    endloop
  endfacet
  facet normal 0 0 1
    outer loop
      vertex 10.991238571703434 11.0316466614604 2
      vertex 4.707106783986092 4.532106786966324 2
      vertex 4.793353341519833 4.433761432766914 2
    endloop
  endfacet
  facet normal 0 0 1
    outer loop
      vertex 11.100000001490116 10.958974599838257 2
      vertex 10.991238571703434 11.0316466614604 2
      vertex 4.793353341519833 4.433761432766914 2
    endloop
  endfacet
  facet normal 0 0 1
    outer loop
      vertex 11.100000001490116 10.958974599838257 2
      vertex 4.793353341519833 4.433761432766914 2
      vertex 4.866025403141975 4.325000002980232 2
    endloop
  endfacet
  facet normal 0 0 1
    outer loop
      vertex 11.217316567897797 10.901120468974113 2
      vertex 11.100000001490116 10.958974599838257 2
      vertex 4.866025403141975 4.325000002980232 2
    endloop
  endfacet
  facet normal 0 0 1
    outer loop
      vertex 11.217316567897797 10.901120468974113 2
      vertex 4.866025403141975 4.325000002980232 2
      vertex 4.923879534006119 4.207683436572552 2
    endloop
  endfacet
  facet normal 0 0 1
    outer loop
      vertex 11.341180957853794 10.859074175357819 2
      vertex 11.217316567897797 10.901120468974113 2
      vertex 4.923879534006119 4.207683436572552 2
    endloop
  endfacet
  facet normal 0 0 1
    outer loop
      vertex 11.341180957853794 10.859074175357819 2
      vertex 4.923879534006119 4.207683436572552 2
      vertex 4.965925827622414 4.083819046616554 2
    endloop
  endfacet
  facet normal 0 0 1
    outer loop
      vertex 11.46947380900383 10.83355513960123 2
      vertex 11.341180957853794 10.859074175357819 2
      vertex 4.965925827622414 4.083819046616554 2
    endloop
  endfacet
  facet normal 0 0 1
    outer loop
      vertex 11.46947380900383 10.83355513960123 2
      vertex 4.965925827622414 4.083819046616554 2
      vertex 4.991444863379002 3.9555261954665184 2
    endloop
  endfacet
  facet normal 0 0 1
    outer loop
      vertex 11.600000001490116 10.825000002980232 2
      vertex 11.46947380900383 10.83355513960123 2
      vertex 4.991444863379002 3.9555261954665184 2
    endloop
  endfacet
  facet normal 0 0 1
    outer loop
      vertex 11.600000001490116 10.825000002980232 2
      vertex 4.991444863379002 3.9555261954665184 2
      vertex 5 3.8250000029802322 2
    endloop
  endfacet
  facet normal 0 0 1
    outer loop
      vertex 15.100000001490116 10.792263358831406 2
      vertex 15.06726336479187 10.825000002980232 2
      vertex 11.600000001490116 10.825000002980232 2
    endloop
  endfacet
  facet normal 0 0 1
    outer loop
      vertex 15.100000001490116 4.857736639678478 2
      vertex 15.100000001490116 10.792263358831406 2
      vertex 11.600000001490116 10.825000002980232 2
    endloop
  endfacet
  facet normal 0 0 1
    outer loop
      vertex 15.06726336479187 4.825000002980232 2
      vertex 15.100000001490116 4.857736639678478 2
      vertex 11.600000001490116 10.825000002980232 2
    endloop
  endfacet
  facet normal 0 0 1
    outer loop
      vertex 11.600000001490116 4.825000002980232 2
      vertex 15.06726336479187 4.825000002980232 2
      vertex 11.600000001490116 10.825000002980232 2
    endloop
  endfacet
  facet normal 0 0 1
    outer loop
      vertex 11.46947380900383 4.816444866359234 2
      vertex 11.600000001490116 4.825000002980232 2
      vertex 11.600000001490116 10.825000002980232 2
    endloop
  endfacet
  facet normal 0 0 1
    outer loop
      vertex 11.341180957853794 4.790925830602646 2
      vertex 11.46947380900383 4.816444866359234 2
      vertex 11.600000001490116 10.825000002980232 2
    endloop
  endfacet
  facet normal 0 0 1
    outer loop
      vertex 11.217316567897797 4.748879536986351 2
      vertex 11.341180957853794 4.790925830602646 2
      vertex 11.600000001490116 10.825000002980232 2
    endloop
  endfacet
  facet normal 0 0 1
    outer loop
      vertex 11.217316567897797 4.748879536986351 2
      vertex 11.600000001490116 10.825000002980232 2
      vertex 5 3.8250000029802322 2
    endloop
  endfacet
  facet normal 0 0 1
    outer loop
      vertex 11.100000001490116 4.691025406122208 2
      vertex 11.217316567897797 4.748879536986351 2
      vertex 5 3.8250000029802322 2
    endloop
  endfacet
  facet normal 0 0 1
    outer loop
      vertex 10.991238571703434 4.618353344500065 2
      vertex 11.100000001490116 4.691025406122208 2
      vertex 5 3.8250000029802322 2
    endloop
  endfacet
  facet normal 0 0 1
    outer loop
      vertex 10.892893217504025 4.532106786966324 2
      vertex 10.991238571703434 4.618353344500065 2
      vertex 5 3.8250000029802322 2
    endloop
  endfacet
  facet normal 0 0 1
    outer loop
      vertex 10.806646659970284 4.433761432766914 2
      vertex 10.892893217504025 4.532106786966324 2
      vertex 5 3.8250000029802322 2
    endloop
  endfacet
  facet normal 0 0 1
    outer loop
      vertex 10.73397459834814 4.325000002980232 2
      vertex 10.806646659970284 4.433761432766914 2
      vertex 5 3.8250000029802322 2
    endloop
  endfacet
  facet normal 0 0 1
    outer loop
      vertex 10.676120467483997 4.207683436572552 2
      vertex 10.73397459834814 4.325000002980232 2
      vertex 5 3.8250000029802322 2
    endloop
  endfacet
  facet normal 0 0 1
    outer loop
      vertex 10.634074173867702 4.083819046616554 2
      vertex 10.676120467483997 4.207683436572552 2
      vertex 5 3.8250000029802322 2
    endloop
  endfacet
  facet normal 0 0 1
    outer loop
      vertex 10.608555138111115 3.9555261954665184 2
      vertex 10.634074173867702 4.083819046616554 2
      vertex 5 3.8250000029802322 2
    endloop
  endfacet
  facet normal 0 0 1
    outer loop
      vertex 10.600000001490116 3.8250000029802322 2
      vertex 10.608555138111115 3.9555261954665184 2
      vertex 5 3.8250000029802322 2
    endloop
  endfacet
  facet normal 0 0 1
    outer loop
      vertex 10.600000001490116 1.3327366337180138 2
      vertex 10.600000001490116 3.8250000029802322 2
      vertex 5 3.8250000029802322 2
    endloop
  endfacet
  facet normal 0 0 1
    outer loop
      vertex 10.56726336479187 1.2999999970197678 2
      vertex 10.600000001490116 1.3327366337180138 2
      vertex 5 3.8250000029802322 2
    endloop
  endfacet
  facet normal 0 0 1
    outer loop
      vertex 10.56726336479187 1.2999999970197678 2
      vertex 5 3.8250000029802322 2
      vertex 5 1.3327366337180138 2
    endloop
  endfacet
  facet normal 0 0 1
    outer loop
      vertex 5.032736636698246 1.2999999970197678 2
      vertex 10.56726336479187 1.2999999970197678 2
      vertex 5 1.3327366337180138 2
    endloop
  endfacet
  facet normal 0 0 -1
    outer loop
      vertex 0.032736636698246 4.825000002980232 0
      vertex 0.002013683319091797 4.827013686299324 0
      vertex 0 4.857736639678478 0
    endloop
  endfacet
  facet normal 0 0 -1
    outer loop
      vertex 5.032736636698246 1.2999999970197678 0
      vertex 5.002013683319092 1.3020136803388596 0
      vertex 5 1.3327366337180138 0
    endloop
  endfacet
  facet normal 0 0 -1
    outer loop
      vertex 0 10.792263358831406 0
      vertex 0.002013683319091797 10.82298631221056 0
      vertex 0.032736636698246 10.825000002980232 0
    endloop
  endfacet
  facet normal 0 0 -1
    outer loop
      vertex 15.100000001490116 4.857736639678478 0
      vertex 15.097986310720444 4.827013686299324 0
      vertex 15.06726336479187 4.825000002980232 0
    endloop
  endfacet
  facet normal 0 0 -1
    outer loop
      vertex 10.600000001490116 1.3327366337180138 0
      vertex 10.597986310720444 1.3020136803388596 0
      vertex 10.56726336479187 1.2999999970197678 0
    endloop
  endfacet
  facet normal 0 0 -1
    outer loop
      vertex 15.06726336479187 10.825000002980232 0
      vertex 15.097986310720444 10.82298631221056 0
      vertex 15.100000001490116 10.792263358831406 0
    endloop
  endfacet
  facet normal 0 0 -1
    outer loop
      vertex 10.56726336479187 15.700000002980232 0
      vertex 10.597986310720444 15.69798631221056 0
      vertex 10.600000001490116 15.667263358831406 0
    endloop
  endfacet
  facet normal 0 0 -1
    outer loop
      vertex 5 15.663289837539196 0
      vertex 5.0019083097577095 15.67778492718935 0
      vertex 5.032666519284248 15.681834325194359 0
    endloop
  endfacet
  facet normal 0 0 -1
    outer loop
      vertex 5 11.825000002980232 0
      vertex 5 15.663289837539196 0
      vertex 5.032666519284248 15.681834325194359 0
    endloop
  endfacet
  facet normal 0 0 -1
    outer loop
      vertex 5 11.825000002980232 0
      vertex 5.032666519284248 15.681834325194359 0
      vertex 5.293492041528225 15.698929741978645 0
    endloop
  endfacet
  facet normal 0 0 -1
    outer loop
      vertex 5 11.825000002980232 0
      vertex 5.293492041528225 15.698929741978645 0
      vertex 5.326184950768948 15.700000002980232 0
    endloop
  endfacet
  facet normal 0 0 -1
    outer loop
      vertex 5 11.825000002980232 0
      vertex 5.326184950768948 15.700000002980232 0
      vertex 10.56726336479187 15.700000002980232 0
    endloop
  endfacet
  facet normal 0 0 -1
    outer loop
      vertex 5 11.825000002980232 0
      vertex 10.56726336479187 15.700000002980232 0
      vertex 10.600000001490116 15.667263358831406 0
    endloop
  endfacet
  facet normal 0 0 -1
    outer loop
      vertex 5 11.825000002980232 0
      vertex 10.600000001490116 15.667263358831406 0
      vertex 10.600000001490116 11.825000002980232 0
    endloop
  endfacet
  facet normal 0 0 -1
    outer loop
      vertex 5 11.825000002980232 0
      vertex 10.600000001490116 11.825000002980232 0
      vertex 10.608555138111115 11.694473810493946 0
    endloop
  endfacet
  facet normal 0 0 -1
    outer loop
      vertex 4.991444863379002 11.694473810493946 0
      vertex 5 11.825000002980232 0
      vertex 10.608555138111115 11.694473810493946 0
    endloop
  endfacet
  facet normal 0 0 -1
    outer loop
      vertex 4.991444863379002 11.694473810493946 0
      vertex 10.608555138111115 11.694473810493946 0
      vertex 10.634074173867702 11.56618095934391 0
    endloop
  endfacet
  facet normal 0 0 -1
    outer loop
      vertex 4.965925827622414 11.56618095934391 0
      vertex 4.991444863379002 11.694473810493946 0
      vertex 10.634074173867702 11.56618095934391 0
    endloop
  endfacet
  facet normal 0 0 -1
    outer loop
      vertex 4.965925827622414 11.56618095934391 0
      vertex 10.634074173867702 11.56618095934391 0
      vertex 10.676120467483997 11.442316569387913 0
    endloop
  endfacet
  facet normal 0 0 -1
    outer loop
      vertex 4.923879534006119 11.442316569387913 0
      vertex 4.965925827622414 11.56618095934391 0
      vertex 10.676120467483997 11.442316569387913 0
    endloop
  endfacet
  facet normal 0 0 -1
    outer loop
      vertex 4.923879534006119 11.442316569387913 0
      vertex 10.676120467483997 11.442316569387913 0
      vertex 10.73397459834814 11.325000002980232 0
    endloop
  endfacet
  facet normal 0 0 -1
    outer loop
      vertex 4.866025403141975 11.325000002980232 0
      vertex 4.923879534006119 11.442316569387913 0
      vertex 10.73397459834814 11.325000002980232 0
    endloop
  endfacet
  facet normal 0 0 -1
    outer loop
      vertex 4.866025403141975 11.325000002980232 0
      vertex 10.73397459834814 11.325000002980232 0
      vertex 10.806646659970284 11.21623857319355 0
    endloop
  endfacet
  facet normal 0 0 -1
    outer loop
      vertex 4.793353341519833 11.21623857319355 0
      vertex 4.866025403141975 11.325000002980232 0
      vertex 10.806646659970284 11.21623857319355 0
    endloop
  endfacet
  facet normal 0 0 -1
    outer loop
      vertex 4.793353341519833 11.21623857319355 0
      vertex 10.806646659970284 11.21623857319355 0
      vertex 10.892893217504025 11.11789321899414 0
    endloop
  endfacet
  facet normal 0 0 -1
    outer loop
      vertex 4.707106783986092 11.11789321899414 0
      vertex 4.793353341519833 11.21623857319355 0
      vertex 10.892893217504025 11.11789321899414 0
    endloop
  endfacet
  facet normal 0 0 -1
    outer loop
      vertex 0 10.792263358831406 0
      vertex 0.032736636698246 10.825000002980232 0
      vertex 4 10.825000002980232 0
    endloop
  endfacet
  facet normal 0 0 -1
    outer loop
      vertex 0 4.857736639678478 0
      vertex 0 10.792263358831406 0
      vertex 4 10.825000002980232 0
    endloop
  endfacet
  facet normal 0 0 -1
    outer loop
      vertex 0.032736636698246 4.825000002980232 0
      vertex 0 4.857736639678478 0
      vertex 4 10.825000002980232 0
    endloop
  endfacet
  facet normal 0 0 -1
    outer loop
      vertex 4 4.825000002980232 0
      vertex 0.032736636698246 4.825000002980232 0
      vertex 4 10.825000002980232 0
    endloop
  endfacet
  facet normal 0 0 -1
    outer loop
      vertex 4 4.825000002980232 0
      vertex 4 10.825000002980232 0
      vertex 4.130526192486286 10.83355513960123 0
    endloop
  endfacet
  facet normal 0 0 -1
    outer loop
      vertex 4.130526192486286 4.816444866359234 0
      vertex 4 4.825000002980232 0
      vertex 4.130526192486286 10.83355513960123 0
    endloop
  endfacet
  facet normal 0 0 -1
    outer loop
      vertex 4.130526192486286 4.816444866359234 0
      vertex 4.130526192486286 10.83355513960123 0
      vertex 4.258819043636322 10.859074175357819 0
    endloop
  endfacet
  facet normal 0 0 -1
    outer loop
      vertex 4.258819043636322 4.790925830602646 0
      vertex 4.130526192486286 4.816444866359234 0
      vertex 4.258819043636322 10.859074175357819 0
    endloop
  endfacet
  facet normal 0 0 -1
    outer loop
      vertex 4.258819043636322 4.790925830602646 0
      vertex 4.258819043636322 10.859074175357819 0
      vertex 4.3826834335923195 10.901120468974113 0
    endloop
  endfacet
  facet normal 0 0 -1
    outer loop
      vertex 4.3826834335923195 4.748879536986351 0
      vertex 4.258819043636322 4.790925830602646 0
      vertex 4.3826834335923195 10.901120468974113 0
    endloop
  endfacet
  facet normal 0 0 -1
    outer loop
      vertex 4.3826834335923195 4.748879536986351 0
      vertex 4.3826834335923195 10.901120468974113 0
      vertex 4.5 10.958974599838257 0
    endloop
  endfacet
  facet normal 0 0 -1
    outer loop
      vertex 4.5 4.691025406122208 0
      vertex 4.3826834335923195 4.748879536986351 0
      vertex 4.5 10.958974599838257 0
    endloop
  endfacet
  facet normal 0 0 -1
    outer loop
      vertex 4.5 4.691025406122208 0
      vertex 4.5 10.958974599838257 0
      vertex 4.608761429786682 11.0316466614604 0
    endloop
  endfacet
  facet normal 0 0 -1
    outer loop
      vertex 4.608761429786682 4.618353344500065 0
      vertex 4.5 4.691025406122208 0
      vertex 4.608761429786682 11.0316466614604 0
    endloop
  endfacet
  facet normal 0 0 -1
    outer loop
      vertex 4.608761429786682 4.618353344500065 0
      vertex 4.608761429786682 11.0316466614604 0
      vertex 4.707106783986092 11.11789321899414 0
    endloop
  endfacet
  facet normal 0 0 -1
    outer loop
      vertex 4.608761429786682 4.618353344500065 0
      vertex 4.707106783986092 11.11789321899414 0
      vertex 10.892893217504025 11.11789321899414 0
    endloop
  endfacet
  facet normal 0 0 -1
    outer loop
      vertex 4.707106783986092 4.532106786966324 0
      vertex 4.608761429786682 4.618353344500065 0
      vertex 10.892893217504025 11.11789321899414 0
    endloop
  endfacet
  facet normal 0 0 -1
    outer loop
      vertex 4.707106783986092 4.532106786966324 0
      vertex 10.892893217504025 11.11789321899414 0
      vertex 10.991238571703434 11.0316466614604 0
    endloop
  endfacet
  facet normal 0 0 -1
    outer loop
      vertex 4.793353341519833 4.433761432766914 0
      vertex 4.707106783986092 4.532106786966324 0
      vertex 10.991238571703434 11.0316466614604 0
    endloop
  endfacet
  facet normal 0 0 -1
    outer loop
      vertex 4.793353341519833 4.433761432766914 0
      vertex 10.991238571703434 11.0316466614604 0
      vertex 11.100000001490116 10.958974599838257 0
    endloop
  endfacet
  facet normal 0 0 -1
    outer loop
      vertex 4.866025403141975 4.325000002980232 0
      vertex 4.793353341519833 4.433761432766914 0
      vertex 11.100000001490116 10.958974599838257 0
    endloop
  endfacet
  facet normal 0 0 -1
    outer loop
      vertex 4.866025403141975 4.325000002980232 0
      vertex 11.100000001490116 10.958974599838257 0
      vertex 11.217316567897797 10.901120468974113 0
    endloop
  endfacet
  facet normal 0 0 -1
    outer loop
      vertex 4.923879534006119 4.207683436572552 0
      vertex 4.866025403141975 4.325000002980232 0
      vertex 11.217316567897797 10.901120468974113 0
    endloop
  endfacet
  facet normal 0 0 -1
    outer loop
      vertex 4.923879534006119 4.207683436572552 0
      vertex 11.217316567897797 10.901120468974113 0
      vertex 11.341180957853794 10.859074175357819 0
    endloop
  endfacet
  facet normal 0 0 -1
    outer loop
      vertex 4.965925827622414 4.083819046616554 0
      vertex 4.923879534006119 4.207683436572552 0
      vertex 11.341180957853794 10.859074175357819 0
    endloop
  endfacet
  facet normal 0 0 -1
    outer loop
      vertex 4.965925827622414 4.083819046616554 0
      vertex 11.341180957853794 10.859074175357819 0
      vertex 11.46947380900383 10.83355513960123 0
    endloop
  endfacet
  facet normal 0 0 -1
    outer loop
      vertex 4.991444863379002 3.9555261954665184 0
      vertex 4.965925827622414 4.083819046616554 0
      vertex 11.46947380900383 10.83355513960123 0
    endloop
  endfacet
  facet normal 0 0 -1
    outer loop
      vertex 4.991444863379002 3.9555261954665184 0
      vertex 11.46947380900383 10.83355513960123 0
      vertex 11.600000001490116 10.825000002980232 0
    endloop
  endfacet
  facet normal 0 0 -1
    outer loop
      vertex 5 3.8250000029802322 0
      vertex 4.991444863379002 3.9555261954665184 0
      vertex 11.600000001490116 10.825000002980232 0
    endloop
  endfacet
  facet normal 0 0 -1
    outer loop
      vertex 11.600000001490116 10.825000002980232 0
      vertex 15.06726336479187 10.825000002980232 0
      vertex 15.100000001490116 10.792263358831406 0
    endloop
  endfacet
  facet normal 0 0 -1
    outer loop
      vertex 11.600000001490116 10.825000002980232 0
      vertex 15.100000001490116 10.792263358831406 0
      vertex 15.100000001490116 4.857736639678478 0
    endloop
  endfacet
  facet normal 0 0 -1
    outer loop
      vertex 11.600000001490116 10.825000002980232 0
      vertex 15.100000001490116 4.857736639678478 0
      vertex 15.06726336479187 4.825000002980232 0
    endloop
  endfacet
  facet normal 0 0 -1
    outer loop
      vertex 11.600000001490116 10.825000002980232 0
      vertex 15.06726336479187 4.825000002980232 0
      vertex 11.600000001490116 4.825000002980232 0
    endloop
  endfacet
  facet normal 0 0 -1
    outer loop
      vertex 11.600000001490116 10.825000002980232 0
      vertex 11.600000001490116 4.825000002980232 0
      vertex 11.46947380900383 4.816444866359234 0
    endloop
  endfacet
  facet normal 0 0 -1
    outer loop
      vertex 11.600000001490116 10.825000002980232 0
      vertex 11.46947380900383 4.816444866359234 0
      vertex 11.341180957853794 4.790925830602646 0
    endloop
  endfacet
  facet normal 0 0 -1
    outer loop
      vertex 11.600000001490116 10.825000002980232 0
      vertex 11.341180957853794 4.790925830602646 0
      vertex 11.217316567897797 4.748879536986351 0
    endloop
  endfacet
  facet normal 0 0 -1
    outer loop
      vertex 5 3.8250000029802322 0
      vertex 11.600000001490116 10.825000002980232 0
      vertex 11.217316567897797 4.748879536986351 0
    endloop
  endfacet
  facet normal 0 0 -1
    outer loop
      vertex 5 3.8250000029802322 0
      vertex 11.217316567897797 4.748879536986351 0
      vertex 11.100000001490116 4.691025406122208 0
    endloop
  endfacet
  facet normal 0 0 -1
    outer loop
      vertex 5 3.8250000029802322 0
      vertex 11.100000001490116 4.691025406122208 0
      vertex 10.991238571703434 4.618353344500065 0
    endloop
  endfacet
  facet normal 0 0 -1
    outer loop
      vertex 5 3.8250000029802322 0
      vertex 10.991238571703434 4.618353344500065 0
      vertex 10.892893217504025 4.532106786966324 0
    endloop
  endfacet
  facet normal 0 0 -1
    outer loop
      vertex 5 3.8250000029802322 0
      vertex 10.892893217504025 4.532106786966324 0
      vertex 10.806646659970284 4.433761432766914 0
    endloop
  endfacet
  facet normal 0 0 -1
    outer loop
      vertex 5 3.8250000029802322 0
      vertex 10.806646659970284 4.433761432766914 0
      vertex 10.73397459834814 4.325000002980232 0
    endloop
  endfacet
  facet normal 0 0 -1
    outer loop
      vertex 5 3.8250000029802322 0
      vertex 10.73397459834814 4.325000002980232 0
      vertex 10.676120467483997 4.207683436572552 0
    endloop
  endfacet
  facet normal 0 0 -1
    outer loop
      vertex 5 3.8250000029802322 0
      vertex 10.676120467483997 4.207683436572552 0
      vertex 10.634074173867702 4.083819046616554 0
    endloop
  endfacet
  facet normal 0 0 -1
    outer loop
      vertex 5 3.8250000029802322 0
      vertex 10.634074173867702 4.083819046616554 0
      vertex 10.608555138111115 3.9555261954665184 0
    endloop
  endfacet
  facet normal 0 0 -1
    outer loop
      vertex 5 3.8250000029802322 0
      vertex 10.608555138111115 3.9555261954665184 0
      vertex 10.600000001490116 3.8250000029802322 0
    endloop
  endfacet
  facet normal 0 0 -1
    outer loop
      vertex 5 3.8250000029802322 0
      vertex 10.600000001490116 3.8250000029802322 0
      vertex 10.600000001490116 1.3327366337180138 0
    endloop
  endfacet
  facet normal 0 0 -1
    outer loop
      vertex 5 3.8250000029802322 0
      vertex 10.600000001490116 1.3327366337180138 0
      vertex 10.56726336479187 1.2999999970197678 0
    endloop
  endfacet
  facet normal 0 0 -1
    outer loop
      vertex 5 1.3327366337180138 0
      vertex 5 3.8250000029802322 0
      vertex 10.56726336479187 1.2999999970197678 0
    endloop
  endfacet
  facet normal 0 0 -1
    outer loop
      vertex 5 1.3327366337180138 0
      vertex 10.56726336479187 1.2999999970197678 0
      vertex 5.032736636698246 1.2999999970197678 0
    endloop
  endfacet
endsolid OpenSCAD_Model
